PathFileType	4	(X/Y/Z)	5_coords_data.trc
DataRate	CameraRate	NumFrames	NumMarkers	Units	OrigDataRate	OrigDataStartFrame	OrigNumFrames
30.0	30.0	5	21	m	30.0	20	68
Frame#	Time	THUMB_TIP	THUMB_IP	THUMB_MCP	THUMB_CMC	INDEX_TIP	INDEX_DIP	INDEX_PIP	INDEX_MCP	MIDDLE_TIP	MIDDLE_DIP	MIDDLE_PIP	MIDDLE_MCP	RING_TIP	RING_DIP	RING_PIP	RING_MCP	PINKY_TIP	PINKY_DIP	PINKY_PIP	PINKY_MCP	WRIST
X1	Y1	Z1	X2	Y2	Z2	X3	Y3	Z3	X4	Y4	Z4	X5	Y5	Z5	X6	Y6	Z6	X7	Y7	Z7	X8	Y8	Z8	X9	Y9	Z9	X10	Y10	Z10	X11	Y11	Z11	X12	Y12	Z12	X13	Y13	Z13	X14	Y14	Z14	X15	Y15	Z15	X16	Y16	Z16	X17	Y17	Z17	X18	Y18	Z18	X19	Y19	Z19	X20	Y20	Z20	X21	Y21	Z21
19	0.6333333333333333	-0.049362998962402344	-0.12381400299072266	1.04468994140625	-0.07195939636230468	-0.12291400146484376	1.048969970703125	-0.08867749786376954	-0.10279100036621094	1.0493399658203124	-0.08000620269775391	-0.07386000061035156	1.05531005859375	-0.05325579833984375	-0.17493299865722656	0.9931019897460938	-0.05824250030517578	-0.15472300720214843	0.9946420288085938	-0.06270920181274414	-0.13222900390625	0.995656982421875	-0.06704239654541015	-0.09244930267333984	1.002739990234375	-0.0699217987060547	-0.09817880249023438	1.049489990234375	-0.06210340118408203	-0.10983499908447265	1.041300048828125	-0.050008201599121095	-0.12266799926757813	1.0250400390625	-0.046858200073242186	-0.08678240203857422	1.00252001953125	-0.05834820175170898	-0.09619640350341797	1.0628599853515626	-0.049629501342773434	-0.10799600219726563	1.04906005859375	-0.033210899353027346	-0.11963099670410156	1.029969970703125	-0.030410499572753907	-0.08361509704589844	1.0143400268554688	0.001730780005455017	-0.13827900695800782	1.00222998046875	-0.0055725002288818356	-0.12171199798583984	1.0106599731445312	-0.01356540012359619	-0.10663200378417968	1.0186199951171875	-0.02426390075683594	-0.08419029998779297	1.03272998046875	-0.0683009033203125	-0.03801350021362305	1.0701300048828124
20	0.6666666666666666	-0.049208099365234376	-0.1238030014038086	1.044300048828125	-0.07172830200195313	-0.1225739974975586	1.04902001953125	-0.08860679626464844	-0.10238899993896484	1.0491400146484375	-0.07985099792480468	-0.07357160186767578	1.0551700439453124	-0.05294380187988281	-0.1744770050048828	0.992958984375	-0.05794409942626953	-0.154343994140625	0.994458984375	-0.06247549819946289	-0.13182499694824218	0.995427978515625	-0.066885498046875	-0.09206739807128907	1.00252001953125	-0.06996820068359375	-0.09783529663085938	1.0496600341796876	-0.06201029968261719	-0.10944499969482421	1.0408299560546874	-0.04998619842529297	-0.12238700103759766	1.02493994140625	-0.04675699996948242	-0.08633989715576172	1.00247998046875	-0.058090999603271486	-0.09572039794921874	1.0624000244140626	-0.0493468017578125	-0.1075989990234375	1.0490699462890625	-0.032936500549316405	-0.11929100036621093	1.0298199462890625	-0.030242599487304688	-0.083197998046875	1.0142100219726562	0.002023560047149658	-0.13781100463867188	1.002010009765625	-0.005310239791870117	-0.12124199676513672	1.01047998046875	-0.01332979965209961	-0.10621399688720704	1.0184299926757812	-0.024121599197387697	-0.0837573013305664	1.032699951171875	-0.06832009887695313	-0.03777890014648438	1.06997998046875
21	0.7	-0.04914530181884766	-0.12346499633789063	1.044219970703125	-0.07151309967041015	-0.12229299926757813	1.04881005859375	-0.08850769805908203	-0.10203399658203124	1.0492099609375	-0.07958059692382813	-0.07324759674072266	1.054969970703125	-0.05297689819335937	-0.17425100708007812	0.9931400146484375	-0.0579656982421875	-0.154052001953125	0.9945369873046875	-0.06242250061035156	-0.1315800018310547	0.9954609985351562	-0.06675920104980469	-0.0917499008178711	1.0024500122070312	-0.06965350341796875	-0.09755490112304688	1.049760009765625	-0.06168000030517578	-0.10904199981689452	1.0410699462890625	-0.049682998657226564	-0.12204299926757813	1.0248199462890626	-0.04663529968261719	-0.08605899810791015	1.00227001953125	-0.058156501770019534	-0.09510790252685547	1.061969970703125	-0.04923369979858398	-0.10723100280761719	1.04897998046875	-0.03285609817504883	-0.11895099639892578	1.029800048828125	-0.030063899993896484	-0.08281279754638672	1.0140700073242188	0.002025209903717041	-0.13759800720214843	1.001989990234375	-0.0052460598945617675	-0.12099400329589843	1.0103800048828124	-0.013209099769592286	-0.10595600128173828	1.0184400024414062	-0.023941999435424806	-0.08343009948730469	1.0325999755859374	-0.06812059783935547	-0.03748460006713867	1.06968994140625
22	0.7333333333333333	-0.04901789855957031	-0.12288200378417968	1.043949951171875	-0.07136139678955078	-0.12206400299072266	1.0486400146484376	-0.08844329833984375	-0.10188500213623047	1.0488699951171876	-0.07972589874267579	-0.07320989990234375	1.0548299560546874	-0.05294889831542969	-0.17405599975585936	0.9931640014648437	-0.057901298522949216	-0.1538489990234375	0.9945570068359375	-0.06235189819335937	-0.1313780059814453	0.99543798828125	-0.0666343994140625	-0.09150260162353516	1.0023499755859375	-0.06997850036621094	-0.09723090362548828	1.0491600341796874	-0.06154119873046875	-0.10890699768066406	1.040969970703125	-0.04957099914550781	-0.12187200164794922	1.02475	-0.046431800842285154	-0.08582180023193359	1.002260009765625	-0.05862220001220703	-0.0951771011352539	1.06302001953125	-0.04911000061035156	-0.1069980010986328	1.049	-0.03268730163574219	-0.11864199829101563	1.0300400390625	-0.02998110008239746	-0.08267819976806641	1.0139400024414063	0.002020149946212768	-0.13745700073242187	1.0019199829101562	-0.0052163701057434085	-0.12084500122070313	1.0102999877929688	-0.013152199745178223	-0.10580899810791015	1.0183400268554688	-0.023866800308227538	-0.08319719696044922	1.0326400146484376	-0.06799539947509765	-0.03765700149536133	1.0695400390625
23	0.7666666666666667	-0.04841070175170899	-0.12260800170898438	1.0440799560546874	-0.07122660064697266	-0.12191999816894532	1.0484000244140625	-0.08811930084228516	-0.10171499633789062	1.0488399658203125	-0.07949169921875	-0.07297109985351563	1.0548299560546874	-0.05267129898071289	-0.17389799499511718	0.9931400146484375	-0.057627601623535155	-0.15368600463867188	0.9944609985351562	-0.06214039993286133	-0.1312469940185547	0.9953380126953125	-0.06651300048828125	-0.09137439727783203	1.0022100219726562	-0.06955570220947266	-0.09729290008544922	1.049469970703125	-0.06141400146484375	-0.10863400268554688	1.0403299560546875	-0.049332199096679685	-0.12161299896240234	1.0245899658203126	-0.04638800048828125	-0.0856759033203125	1.001989990234375	-0.05788299942016602	-0.0950593032836914	1.0624300537109375	-0.04884049987792969	-0.10683200073242187	1.0486199951171875	-0.03246269989013672	-0.1184219970703125	1.0297900390625	-0.029814899444580076	-0.08239630126953125	1.0138300170898438	0.0022760899066925047	-0.13723399353027343	1.0018699951171874	-0.005006629943847657	-0.12058699798583984	1.0101900024414063	-0.012963800430297852	-0.10555599975585937	1.0181699829101563	-0.02364489936828613	-0.08291960144042969	1.03206005859375	-0.06796710205078126	-0.037167301177978514	1.0696400146484375
